<?xml version="1.0" encoding="utf-8"?><!DOCTYPE svg PUBLIC "-//W3C//DTD SVG 1.1//EN" "http://www.w3.org/Graphics/SVG/1.1/DTD/svg11.dtd"><svg height='300px' width='300px'  fill="#000000" version="1.1" xmlns="http://www.w3.org/2000/svg" xmlns:xlink="http://www.w3.org/1999/xlink" x="0px" y="0px" viewBox="0 0 100 100" enable-background="new 0 0 100 100" xml:space="preserve"><circle fill="#000000" cx="37.25" cy="43.355" r="9.082"></circle><path fill="#000000" d="M82.187,55h-2.843v9.396h2.843C87.643,64.396,87.643,55,82.187,55z"></path><path fill="#000000" d="M77.299,5.027v16.85H63.847V5.102c-6.115,2.503-10.4,8.267-10.4,14.983c0,6.912,4.539,12.804,10.939,15.184
	V55H46.69l-0.002,0.025l-19.934,0.007c-8.765,0-13.4,5.91-13.4,11.941v23.961c-0.015,5.457,8.188,5.457,8.188,0V67.554h3.945
	l0.009,26.828h23.97l-0.004-29.986h14.926v23.836c0,3.565,2.89,6.457,6.456,6.457c3.565,0,6.456-2.892,6.456-6.457V66.927h-0.007
	v-13.14h0.007V35.144c6.212-2.46,10.581-8.275,10.581-15.059C87.88,13.302,83.513,7.49,77.299,5.027z"></path></svg>